<svg width="455" height="172" viewBox="0 0 455 172" fill="none" xmlns="http://www.w3.org/2000/svg">
<path d="M9.245 82.3398C-1.90708 95.9701 14.8322 130.162 18.2661 143.089C28.6675 146.556 16.7192 157.162 25.0033 159.647C58.6723 169.748 89.6743 167.114 124.011 164.197L125.149 164.1C182.98 159.19 240.686 155.884 298.719 152.225C334.012 149.999 366.721 147.325 401.034 138.978C420.896 134.147 450.567 123.888 449.565 98.3265C447.154 36.842 375.938 40.3176 331.149 40.3176C266.263 40.3176 201.732 32.2124 136.91 30.1546C115.683 29.4807 90.2589 30.7389 70.5655 39.404C53.9207 46.7278 44.876 56.8 31.969 68.8653C25.6408 74.7808 15.8977 74.2088 9.245 82.3398Z" fill="#B22234" stroke="black" stroke-width="9" stroke-linecap="round"/>
<path d="M9.245 57.7892C-1.90708 71.4195 14.8322 105.611 18.2661 118.539C28.6675 122.006 16.7192 132.611 25.0033 135.096C58.6723 145.197 89.6743 142.563 124.011 139.646L125.149 139.55C182.98 134.64 240.686 131.334 298.719 127.674C334.012 125.448 366.721 122.774 401.034 114.428C420.896 109.596 450.567 99.337 449.565 73.7759C447.154 12.2913 375.938 15.7669 331.149 15.7669C266.263 15.7669 201.732 7.66177 136.91 5.60393C115.683 4.93003 90.2589 6.18826 70.5655 14.8534C53.9207 22.1771 44.876 32.2493 31.969 44.3146C25.6408 50.2301 15.8977 49.6581 9.245 57.7892Z" fill="#3C3B6E" stroke="black" stroke-width="9" stroke-linecap="round"/>
<path d="M72.4088 90.2939C72.9073 90.2424 73.3878 90.1581 73.8505 90.0411C74.3132 89.9241 74.7235 89.7423 75.0814 89.4957C75.4393 89.2492 75.7115 88.939 75.898 88.5653C76.1165 88.157 76.2155 87.6697 76.1948 87.1035L75.5004 68.1161C74.7022 68.1787 74.1105 68.4171 73.7254 68.8315C73.3736 69.2446 73.1254 69.754 72.9807 70.3597C72.8694 70.9642 72.8259 71.5995 72.8503 72.2658C72.8747 72.932 72.8805 73.5488 72.8679 74.1164L64.9233 74.4069C65.0273 73.6025 65.0646 72.8006 65.0354 72.0012C65.0395 71.2005 65.0269 70.4004 64.9977 69.6009C64.9416 68.0686 64.8862 66.553 64.8314 65.054C64.7754 63.5217 64.6367 62.0091 64.4153 60.5162C69.9892 60.6125 75.541 60.5596 81.0706 60.3574C86.8667 60.1455 92.6574 59.7836 98.4426 59.2718C98.3308 60.7769 98.303 62.2956 98.359 63.8279C98.4138 65.3269 98.4692 66.8426 98.5253 68.3749C98.5545 69.1744 98.5837 69.9738 98.613 70.7733C98.6755 71.5715 98.788 72.368 98.9505 73.1626L91.0058 73.4531C90.9518 72.888 90.9126 72.2724 90.8882 71.6061C90.8972 70.9387 90.8074 70.3082 90.6189 69.7147C90.4638 69.12 90.179 68.6301 89.7647 68.245C89.3503 67.8598 88.7428 67.6652 87.9421 67.6612L88.6364 86.6485C88.6572 87.2148 88.7748 87.6941 88.9892 88.0866C89.2358 88.4444 89.5466 88.7333 89.9215 88.9531C90.2965 89.1728 90.719 89.3242 91.189 89.407C91.659 89.4899 92.1444 89.5389 92.6453 89.5539L92.9358 97.4986C91.237 97.5607 89.5529 97.5723 87.8837 97.5333C86.2133 97.4609 84.5286 97.4558 82.8298 97.5179C81.1309 97.5801 79.4345 97.7088 77.7405 97.9042C76.0786 98.065 74.3982 98.1765 72.6993 98.2386L72.4088 90.2939ZM122.362 81.6627C122.312 81.1976 122.132 80.8539 121.824 80.6317C121.514 80.3761 121.124 80.1903 120.653 80.0741C120.215 79.9567 119.729 79.9077 119.196 79.9272C118.662 79.9134 118.112 79.9168 117.546 79.9375L117.752 85.5838C117.8 86.8829 118.164 87.7202 118.845 88.0955C119.524 88.4376 120.447 88.5873 121.613 88.5447C122.546 88.5106 123.273 88.3339 123.795 88.0146C124.316 87.662 124.7 87.2143 124.947 86.6716C125.192 86.0956 125.336 85.4565 125.377 84.7546C125.451 84.0514 125.49 83.2995 125.495 82.4988L133.439 82.2083C133.312 83.2803 133.267 84.3493 133.306 85.4152C133.345 86.4812 133.384 87.5472 133.423 88.6131C133.47 89.8789 133.516 91.1448 133.562 92.4106C133.641 93.6419 133.769 94.8713 133.947 96.099C130.619 96.2874 127.27 96.3765 123.9 96.3663C120.563 96.3216 117.229 96.3601 113.898 96.4819C111.866 96.5562 109.852 96.6799 107.857 96.8529C105.861 96.9926 103.847 97.0996 101.815 97.1739L101.525 89.2292C101.99 89.1789 102.454 89.0952 102.916 88.9782C103.379 88.8612 103.79 88.6961 104.149 88.4828C104.507 88.2362 104.796 87.9255 105.016 87.5505C105.234 87.1423 105.332 86.6383 105.31 86.0387L104.733 70.2493C104.711 69.6497 104.577 69.171 104.33 68.8131C104.083 68.4219 103.772 68.133 103.398 67.9465C103.023 67.7268 102.601 67.5754 102.131 67.4926C101.661 67.4097 101.192 67.3601 100.724 67.3439L100.434 59.3992C102.431 59.2928 104.414 59.2536 106.383 59.2817C108.352 59.3097 110.336 59.2872 112.335 59.2141C115.499 59.0984 118.779 58.9285 122.173 58.7043C125.599 58.4456 128.894 58.2583 132.059 58.1426C131.971 59.38 131.933 60.6322 131.946 61.8993C131.991 63.1318 132.037 64.3809 132.083 65.6467C132.122 66.7127 132.161 67.7787 132.2 68.8446C132.239 69.9106 132.361 70.9735 132.567 72.0333L124.622 72.3239C124.562 71.5922 124.503 70.8773 124.444 70.179C124.418 69.4794 124.296 68.8668 124.076 68.3411C123.889 67.781 123.556 67.3428 123.078 67.0268C122.598 66.6774 121.908 66.5192 121.009 66.552C119.843 66.5947 118.901 66.8293 118.183 67.2558C117.463 67.649 117.127 68.4952 117.175 69.7943L117.383 75.4905C117.949 75.4698 118.499 75.4497 119.032 75.4302C119.597 75.3762 120.094 75.2747 120.522 75.1256C120.983 74.9753 121.343 74.7787 121.601 74.5357C121.891 74.2583 122.044 73.8858 122.06 73.4182L126.507 73.2556C126.465 73.9242 126.44 74.6089 126.432 75.3097C126.425 76.0104 126.433 76.6939 126.457 77.3602C126.483 78.0597 126.525 78.7586 126.584 79.4569C126.642 80.1219 126.717 80.803 126.809 81.5001L122.362 81.6627ZM135.633 87.982C136.099 87.9649 136.563 87.8979 137.026 87.7809C137.488 87.6306 137.897 87.4322 138.255 87.1856C138.613 86.939 138.902 86.6282 139.122 86.2533C139.34 85.845 139.439 85.3578 139.419 84.7915L138.841 69.002C138.819 68.4024 138.685 67.9237 138.438 67.5658C138.191 67.1746 137.88 66.8857 137.506 66.6993C137.131 66.4795 136.709 66.3282 136.239 66.2453C135.769 66.1624 135.3 66.1128 134.832 66.0966L134.542 58.1519C136.238 58.0231 137.922 58.0116 139.594 58.1172C141.298 58.1884 142.999 58.1929 144.698 58.1307C146.397 58.0686 148.077 57.9571 149.739 57.7963C151.4 57.6021 153.079 57.474 154.778 57.4119L155.069 65.3566C154.604 65.4069 154.14 65.4906 153.677 65.6076C153.214 65.7246 152.804 65.9064 152.446 66.1529C152.087 66.3662 151.798 66.677 151.58 67.0852C151.36 67.4602 151.261 67.9475 151.283 68.5471L151.86 84.3365C151.904 85.5357 152.217 86.3415 152.799 86.7538C153.381 87.1661 154.24 87.3849 155.375 87.4101C157.077 87.4479 158.353 87.2178 159.202 86.7198C160.051 86.2218 160.643 85.533 160.978 84.6535C161.313 83.774 161.475 82.7507 161.466 81.5836C161.455 80.3832 161.458 79.0823 161.473 77.6808L169.418 77.3902C169.299 78.6955 169.264 80.0309 169.314 81.3967C169.363 82.7291 169.411 84.0449 169.459 85.3441C169.517 86.943 169.575 88.5253 169.632 90.0909C169.69 91.6565 169.83 93.2191 170.054 94.7786C166.525 94.9744 162.993 95.0702 159.457 95.066C155.92 95.0286 152.386 95.0744 148.855 95.2036C146.69 95.2827 144.527 95.4119 142.365 95.591C140.236 95.7356 138.088 95.8475 135.923 95.9266L135.633 87.982ZM192.579 79.095C192.528 78.6299 192.349 78.2862 192.041 78.064C191.731 77.8084 191.341 77.6226 190.869 77.5064C190.432 77.389 189.946 77.34 189.413 77.3595C188.879 77.3457 188.329 77.3491 187.762 77.3698L187.969 83.0161C188.016 84.3152 188.381 85.1525 189.061 85.5278C189.741 85.8699 190.664 86.0196 191.83 85.977C192.762 85.9429 193.49 85.7662 194.012 85.4469C194.533 85.0943 194.916 84.6466 195.163 84.1039C195.409 83.5278 195.553 82.8888 195.594 82.1869C195.668 81.4837 195.707 80.7318 195.711 79.9311L203.656 79.6405C203.528 80.7126 203.484 81.7816 203.523 82.8475C203.562 83.9135 203.601 84.9795 203.64 86.0454C203.686 87.3112 203.733 88.5771 203.779 89.8429C203.857 91.0742 203.986 92.3036 204.164 93.5313C200.835 93.7197 197.486 93.8088 194.117 93.7986C190.78 93.7539 187.446 93.7924 184.115 93.9142C182.083 93.9885 180.069 94.1122 178.074 94.2852C176.078 94.4249 174.064 94.5319 172.032 94.6062L171.741 86.6615C172.206 86.6112 172.67 86.5275 173.133 86.4105C173.596 86.2935 174.007 86.1284 174.366 85.9151C174.724 85.6685 175.012 85.3578 175.232 84.9828C175.451 84.5746 175.549 84.0706 175.527 83.471L174.95 67.6816C174.928 67.082 174.794 66.6032 174.547 66.2454C174.299 65.8541 173.988 65.5653 173.615 65.3788C173.24 65.1591 172.817 65.0077 172.347 64.9249C171.877 64.842 171.409 64.7924 170.941 64.7762L170.65 56.8315C172.648 56.7251 174.631 56.6859 176.6 56.714C178.569 56.742 180.553 56.7195 182.552 56.6464C185.716 56.5307 188.995 56.3608 192.39 56.1366C195.816 55.8779 199.111 55.6906 202.276 55.5749C202.187 56.8123 202.15 58.0645 202.163 59.3315C202.208 60.5641 202.254 61.8132 202.3 63.079C202.339 64.145 202.378 65.211 202.417 66.2769C202.456 67.3429 202.578 68.4058 202.784 69.4656L194.839 69.7562C194.779 69.0245 194.719 68.3096 194.66 67.6112C194.635 66.9117 194.512 66.2991 194.293 65.7734C194.106 65.2132 193.773 64.7751 193.294 64.4591C192.815 64.1097 192.125 63.9515 191.226 63.9843C190.06 64.027 189.118 64.2616 188.399 64.6881C187.68 65.0813 187.344 65.9275 187.391 67.2266L187.6 72.9228C188.166 72.9021 188.716 72.882 189.249 72.8625C189.814 72.8085 190.31 72.707 190.739 72.5579C191.2 72.4076 191.56 72.211 191.818 71.968C192.108 71.6906 192.261 71.3181 192.277 70.8505L196.724 70.6879C196.682 71.3565 196.657 72.0412 196.649 72.742C196.641 73.4427 196.65 74.1262 196.674 74.7925C196.7 75.492 196.742 76.1909 196.801 76.8892C196.859 77.5542 196.933 78.2353 197.026 78.9324L192.579 79.095ZM229.629 85.7955C230.695 85.7565 231.455 85.562 231.909 85.2118C232.397 84.8604 232.697 84.3991 232.809 83.828C232.955 83.2556 232.997 82.5869 232.936 81.822C232.875 81.0571 232.829 80.2582 232.798 79.4254C232.756 78.2595 232.344 77.4907 231.563 77.119C230.781 76.714 229.457 76.5289 227.59 76.5638L227.355 70.1181C230.659 70.1641 234.043 70.1237 237.507 69.9971C240.971 69.8704 244.333 69.6641 247.591 69.3781L247.827 75.8238C247.362 75.8742 246.898 75.9579 246.435 76.0749C245.972 76.1918 245.562 76.3736 245.204 76.6202C244.845 76.8335 244.556 77.1442 244.338 77.5525C244.118 77.9274 244.019 78.4147 244.041 79.0143L244.5 91.5559L242.351 91.6345L237.141 88.7229C235.781 89.8401 234.246 90.7301 232.536 91.393C230.859 92.0548 229.024 92.5054 227.031 92.7451C220.253 93.4599 215.021 92.217 211.335 89.0162C207.649 85.8154 205.684 80.9006 205.442 74.2717C205.33 71.2071 205.68 68.4591 206.491 66.0278C207.336 63.5953 208.578 61.5319 210.218 59.8375C211.857 58.1432 213.877 56.8351 216.278 55.9134C218.678 54.9584 221.394 54.4255 224.425 54.3146C225.858 54.2623 227.278 54.3437 228.687 54.5591C230.128 54.7399 231.492 55.1069 232.78 55.6602C233.389 55.9048 233.889 55.8865 234.279 55.6054C234.668 55.291 234.883 54.7995 234.926 54.1308L240.872 53.9134C240.914 55.0793 240.923 56.2297 240.898 57.3647C240.905 58.4652 240.929 59.5984 240.972 60.7643C241.017 61.9968 241.095 63.2281 241.207 64.4581C241.319 65.6882 241.381 66.9201 241.392 68.1538L235.446 68.3713C235.37 67.2066 235.162 66.0801 234.822 64.9918C234.514 63.869 234.062 62.8849 233.464 62.0395C232.899 61.1929 232.158 60.5362 231.24 60.0695C230.355 59.5681 229.279 59.3406 228.013 59.3869C226.347 59.4478 224.999 59.9641 223.967 60.9358C222.967 61.873 222.192 63.0354 221.643 64.4231C221.125 65.7762 220.795 67.2393 220.653 68.8122C220.51 70.3851 220.463 71.8378 220.512 73.1703C220.563 74.5693 220.733 76.0307 221.022 77.5545C221.345 79.0771 221.846 80.4597 222.525 81.7024C223.204 82.9451 224.125 83.9621 225.288 84.7534C226.45 85.5115 227.897 85.8588 229.629 85.7955ZM249.131 83.8315C249.596 83.7812 250.06 83.6975 250.523 83.5805C250.985 83.4635 251.396 83.2984 251.755 83.0851C252.113 82.8385 252.402 82.5278 252.622 82.1528C252.84 81.7446 252.939 81.2406 252.917 80.641L252.336 64.7517C252.314 64.1521 252.18 63.6733 251.933 63.3154C251.685 62.9242 251.375 62.6354 251.001 62.4489C250.626 62.2291 250.203 62.0778 249.733 61.9949C249.263 61.912 248.795 61.8625 248.327 61.8462L248.036 53.9015C249.466 53.7825 250.901 53.7801 252.339 53.8943C253.776 53.9752 255.228 53.9888 256.693 53.9352C259.258 53.8414 261.788 53.6822 264.281 53.4576C266.808 53.2318 269.354 53.072 271.919 52.9782C273.817 52.9087 275.589 53.0107 277.233 53.2841C278.878 53.5576 280.315 54.0887 281.544 54.8777C282.774 55.6666 283.764 56.7478 284.515 58.1213C285.266 59.4948 285.681 61.2641 285.76 63.4293C285.81 64.7951 285.671 66.0176 285.344 67.097C285.015 68.143 284.531 69.0613 283.893 69.8518C283.288 70.6411 282.546 71.3187 281.666 71.8846C280.785 72.4171 279.834 72.8689 278.814 73.2397C280.189 73.4563 281.254 73.8343 282.007 74.3738C282.761 74.9133 283.334 75.5427 283.727 76.2622C284.119 76.9483 284.396 77.672 284.557 78.4333C284.719 79.1946 284.911 79.888 285.134 80.5136C285.39 81.138 285.725 81.6428 286.14 82.0279C286.587 82.4118 287.261 82.5873 288.16 82.5544L288.445 90.3492C287.483 90.4844 286.521 90.6197 285.558 90.755C284.63 90.9223 283.684 91.0236 282.717 91.059C280.586 91.1369 278.64 90.8245 276.879 90.1217C275.151 89.3843 273.752 88.0513 272.68 86.1225C272.144 85.1414 271.754 84.0383 271.509 82.8131C271.297 81.5867 271.037 80.412 270.729 79.2892C270.455 78.1651 270.019 77.1971 269.422 76.385C268.859 75.5717 267.975 75.1037 266.769 74.981L265.17 75.0395L265.359 80.1861C265.38 80.7857 265.515 81.2811 265.763 81.6723C266.01 82.0302 266.32 82.319 266.695 82.5388C267.069 82.7253 267.491 82.8599 267.961 82.9428C268.431 83.0257 268.9 83.0753 269.367 83.0915L269.658 91.0362C267.962 91.1649 266.278 91.1932 264.608 91.1208C262.936 91.0152 261.251 90.9934 259.552 91.0555C257.853 91.1176 256.157 91.2464 254.463 91.4418C252.801 91.6026 251.12 91.7141 249.421 91.7762L249.131 83.8315ZM264.955 69.1434C265.887 69.1093 266.787 69.0765 267.653 69.0448C268.518 68.9798 269.262 68.8025 269.885 68.5129C270.541 68.222 271.058 67.7528 271.435 67.1053C271.811 66.4578 271.978 65.5344 271.934 64.3352C271.857 62.2366 271.372 60.8367 270.479 60.1355C269.618 59.3998 268.189 59.0685 266.19 59.1416L264.591 59.2001L264.955 69.1434ZM290.168 82.3309C290.666 82.2793 291.247 82.1913 291.909 82.0671C292.572 81.9428 293.216 81.7524 293.84 81.4961C294.464 81.2398 295.02 80.9193 295.506 80.5346C295.991 80.1166 296.306 79.6214 296.452 79.049C296.57 78.6111 296.761 77.9203 297.027 76.9766C297.325 75.9984 297.651 74.9024 298.007 73.6886C298.362 72.4415 298.715 71.1611 299.068 69.8473C299.452 68.499 299.789 67.2358 300.08 66.0578C300.402 64.8452 300.665 63.8182 300.868 62.9769C301.069 62.1023 301.165 61.5151 301.154 61.2153C301.143 60.9155 301.051 60.6854 300.878 60.5249C300.738 60.3299 300.55 60.2034 300.314 60.1453C300.112 60.086 299.877 60.0445 299.609 60.021C299.341 59.9974 299.091 59.9899 298.858 59.9984L298.567 52.0537C300.036 52.1 301.488 52.1137 302.922 52.0946C304.388 52.0743 305.871 52.0368 307.37 51.982C308.836 51.9284 310.268 51.876 311.668 51.8248C313.099 51.7391 314.545 51.6195 316.007 51.466L324.883 78.0094C325.184 78.9323 325.677 79.6481 326.363 80.1567C327.08 80.6308 327.924 80.8835 328.892 80.9148L329.183 88.8595C327.484 88.9216 325.783 88.9338 324.081 88.896C322.41 88.8236 320.725 88.8185 319.027 88.8806C317.494 88.9367 315.981 89.0587 314.487 89.2468C312.992 89.4015 311.478 89.5069 309.945 89.563L308.946 89.5995L308.656 81.6548C309.022 81.6414 309.421 81.5935 309.851 81.511C310.314 81.394 310.742 81.245 311.136 81.0638C311.563 80.8814 311.904 80.6354 312.159 80.3259C312.448 80.0151 312.584 79.6266 312.567 79.1602C312.548 78.6272 312.411 78.0819 312.157 77.5241C311.936 76.9651 311.734 76.4388 311.549 75.9453L303.055 76.2559C302.906 76.7616 302.743 77.3013 302.563 77.8749C302.384 78.4485 302.304 78.9851 302.322 79.4848C302.339 79.9512 302.486 80.3294 302.764 80.6194C303.075 80.9083 303.433 81.1453 303.841 81.3306C304.28 81.4813 304.734 81.5981 305.204 81.681C305.673 81.7305 306.074 81.7492 306.407 81.737L306.698 89.6817L305.748 89.7164C304.549 89.7603 303.348 89.7542 302.145 89.6981C300.974 89.6075 299.789 89.5841 298.59 89.628C297.224 89.6779 295.861 89.7945 294.5 89.9777C293.172 90.1263 291.824 90.2256 290.458 90.2756L290.168 82.3309ZM309.896 71.8029L306.601 62.417L304.25 72.0094L309.896 71.8029ZM330.912 80.8409C331.411 80.7893 331.891 80.7051 332.354 80.5881C332.817 80.4711 333.227 80.2893 333.585 80.0427C333.943 79.7961 334.215 79.486 334.401 79.1123C334.62 78.704 334.719 78.2167 334.698 77.6504L334.117 61.7611C334.096 61.1948 333.963 60.7327 333.716 60.3748C333.502 59.9824 333.207 59.6763 332.832 59.4565C332.457 59.2367 332.035 59.0854 331.565 59.0025C331.095 58.9196 330.609 58.8707 330.108 58.8556L329.818 50.9109C331.455 50.9845 333.074 51.0253 334.675 51.0335C336.31 51.0404 337.96 51.0134 339.626 50.9525C341.391 50.888 343.139 50.7907 344.869 50.6607C346.632 50.5296 348.394 50.3651 350.154 50.1673L359.393 72.9449L366.943 49.5533C368.38 49.6342 369.816 49.6817 371.251 49.696C372.685 49.6769 374.134 49.6406 375.6 49.587C376.966 49.537 378.314 49.4711 379.645 49.389C381.009 49.2725 382.371 49.1226 383.732 48.9394L384.022 56.8841C383.524 56.9357 383.043 57.0199 382.58 57.1369C382.118 57.2539 381.707 57.4357 381.35 57.6823C380.992 57.9289 380.703 58.2563 380.485 58.6645C380.298 59.0383 380.216 59.5083 380.236 60.0746L380.817 75.9639C380.838 76.5302 380.956 77.0096 381.17 77.402C381.417 77.7599 381.727 78.0487 382.102 78.2685C382.477 78.4883 382.9 78.6396 383.37 78.7225C383.84 78.8054 384.325 78.8543 384.826 78.8694L385.117 86.8141L384.517 86.836C382.918 86.8945 381.334 86.9024 379.765 86.8597C378.194 86.7837 376.61 86.7749 375.011 86.8334C373.312 86.8955 371.615 87.0243 369.921 87.2196C368.259 87.3805 366.579 87.492 364.88 87.5541L364.59 79.6094C365.088 79.5578 365.569 79.4735 366.031 79.3565C366.494 79.2396 366.904 79.0578 367.262 78.8112C367.62 78.5646 367.892 78.2545 368.079 77.8807C368.297 77.4725 368.396 76.9852 368.376 76.4189L367.93 64.2271L360.185 87.7758L348.943 88.1869L339.772 65.9072C339.843 67.8392 339.897 69.7719 339.934 71.7051C340.004 73.6038 340.074 75.5192 340.145 77.4513C340.165 78.0176 340.283 78.4969 340.497 78.8893C340.744 79.2472 341.055 79.5361 341.43 79.7559C341.805 79.9756 342.227 80.127 342.697 80.2098C343.167 80.2927 343.652 80.3417 344.153 80.3567L344.444 88.3014L344.044 88.316C343.145 88.3489 342.244 88.3318 341.34 88.2648C340.471 88.1965 339.586 88.1788 338.687 88.2117C337.421 88.258 336.174 88.3537 334.945 88.4987C333.716 88.6437 332.469 88.7393 331.203 88.7856L330.912 80.8409Z" fill="white"/>
</svg>
