<svg width="454" height="172" viewBox="0 0 454 172" fill="none" xmlns="http://www.w3.org/2000/svg">
<path d="M8.78015 82.3398C-2.37192 95.9701 14.3674 130.162 17.8012 143.089C28.2027 146.556 16.2544 157.162 24.5385 159.647C58.2075 169.748 89.2095 167.114 123.546 164.197L124.684 164.1C182.515 159.19 240.221 155.884 298.254 152.225C333.547 149.999 366.257 147.325 400.569 138.978C420.431 134.147 450.103 123.888 449.1 98.3265C446.689 36.842 375.473 40.3176 330.684 40.3176C265.799 40.3176 201.267 32.2124 136.446 30.1546C115.218 29.4807 89.7941 30.7389 70.1006 39.404C53.4558 46.7278 44.4112 56.8 31.5041 68.8653C25.1759 74.7808 15.4328 74.2088 8.78015 82.3398Z" fill="#B22234" stroke="black" stroke-width="9" stroke-linecap="round"/>
<path d="M8.78015 57.7892C-2.37192 71.4195 14.3674 105.611 17.8012 118.539C28.2027 122.006 16.2544 132.611 24.5385 135.096C58.2075 145.197 89.2095 142.563 123.546 139.646L124.684 139.55C182.515 134.64 240.221 131.334 298.254 127.674C333.547 125.448 366.257 122.774 400.569 114.428C420.431 109.596 450.103 99.337 449.1 73.7759C446.689 12.2913 375.473 15.7669 330.684 15.7669C265.799 15.7669 201.267 7.66177 136.446 5.60393C115.218 4.93003 89.7941 6.18826 70.1006 14.8534C53.4558 22.1771 44.4112 32.2493 31.5041 44.3146C25.1759 50.2301 15.4328 49.6581 8.78015 57.7892Z" fill="#3C3B6E" stroke="black" stroke-width="9" stroke-linecap="round"/>
<path d="M70.1598 90.3592C70.6595 90.3409 71.1407 90.2733 71.6034 90.1563C72.0649 90.006 72.4746 89.8076 72.8325 89.561C73.1904 89.3144 73.4625 89.0042 73.649 88.6305C73.8676 88.2223 73.9665 87.735 73.9458 87.1687L73.3647 71.2793C73.344 70.713 73.2104 70.2509 72.9638 69.893C72.7493 69.5006 72.4546 69.1945 72.0797 68.9747C71.7047 68.755 71.2822 68.6036 70.8122 68.5207C70.341 68.4046 69.8555 68.3556 69.3559 68.3739L69.0654 60.4292C70.7679 60.467 72.4525 60.4721 74.1193 60.4445C75.8194 60.4157 77.5188 60.3702 79.2177 60.3081C80.317 60.2679 81.299 60.2153 82.1639 60.1503C83.0621 60.0841 83.927 60.0191 84.7585 59.9554C85.6222 59.8571 86.5031 59.7748 87.4013 59.7086C88.2995 59.6424 89.2815 59.5898 90.3475 59.5509C93.3455 59.4412 95.8312 59.9174 97.8047 60.9793C99.8102 62.0067 101.413 63.4157 102.612 65.2064C103.812 66.9971 104.671 69.0504 105.189 71.3664C105.707 73.6823 106.01 76.0395 106.098 78.4379C106.194 81.0695 106.067 83.5257 105.717 85.8067C105.4 88.0865 104.689 90.0638 103.583 91.7387C102.51 93.4124 100.958 94.7533 98.9265 95.7615C96.8953 96.7698 94.2475 97.3336 90.983 97.453C89.9837 97.4895 89.0509 97.5236 88.1849 97.5553C87.3509 97.5524 86.5169 97.5496 85.6829 97.5467C84.8489 97.5438 83.9988 97.5583 83.1327 97.5899C82.2988 97.5871 81.3821 97.6039 80.3828 97.6405C78.7172 97.7014 77.0535 97.8122 75.3916 97.9731C73.763 98.1327 72.1159 98.243 70.4504 98.3039L70.1598 90.3592ZM86.5866 92.1601C88.1522 92.1028 89.335 91.6093 90.1349 90.6794C90.9336 89.7163 91.4924 88.5784 91.8113 87.2659C92.129 85.92 92.2943 84.5131 92.3073 83.0449C92.3204 81.5768 92.3068 80.2931 92.2666 79.1939C92.2422 78.5276 92.1969 77.7454 92.1307 76.8472C92.0633 75.9158 91.9453 74.9694 91.7768 74.0083C91.6415 73.0459 91.4236 72.1033 91.123 71.1803C90.8224 70.2573 90.4255 69.4379 89.9324 68.7222C89.4713 67.9718 88.8831 67.3929 88.1677 66.9855C87.4511 66.5447 86.6098 66.342 85.6438 66.3773L86.5866 92.1601ZM128.814 81.4098C128.763 80.9446 128.584 80.6009 128.276 80.3787C127.966 80.1232 127.576 79.9373 127.105 79.8212C126.667 79.7037 126.181 79.6548 125.648 79.6743C125.114 79.6605 124.564 79.6639 123.998 79.6846L124.204 85.3308C124.251 86.63 124.616 87.4672 125.297 87.8426C125.976 88.1846 126.899 88.3344 128.065 88.2917C128.997 88.2576 129.725 88.0809 130.247 87.7616C130.768 87.409 131.152 86.9614 131.399 86.4186C131.644 85.8426 131.788 85.2036 131.829 84.5016C131.903 83.7985 131.942 83.0465 131.946 82.2458L139.891 81.9553C139.764 83.0274 139.719 84.0964 139.758 85.1623C139.797 86.2283 139.836 87.2942 139.875 88.3602C139.921 89.626 139.968 90.8918 140.014 92.1576C140.092 93.3889 140.221 94.6184 140.399 95.846C137.07 96.0345 133.721 96.1236 130.352 96.1134C127.015 96.0686 123.681 96.1072 120.35 96.229C118.318 96.3033 116.304 96.4269 114.309 96.6C112.313 96.7397 110.299 96.8467 108.267 96.921L107.976 88.9763C108.441 88.9259 108.905 88.8423 109.368 88.7253C109.831 88.6083 110.242 88.4431 110.601 88.2299C110.959 87.9833 111.248 87.6725 111.467 87.2976C111.686 86.8893 111.784 86.3854 111.762 85.7858L111.185 69.9964C111.163 69.3968 111.029 68.918 110.782 68.5601C110.534 68.1689 110.224 67.8801 109.85 67.6936C109.475 67.4738 109.052 67.3225 108.582 67.2396C108.112 67.1567 107.644 67.1072 107.176 67.0909L106.886 59.1462C108.883 59.0398 110.866 59.0007 112.835 59.0287C114.804 59.0568 116.788 59.0343 118.787 58.9612C121.951 58.8455 125.231 58.6755 128.625 58.4513C132.051 58.1926 135.346 58.0054 138.511 57.8897C138.423 59.1271 138.385 60.3793 138.398 61.6463C138.443 62.8788 138.489 64.128 138.535 65.3938C138.574 66.4598 138.613 67.5257 138.652 68.5917C138.691 69.6576 138.813 70.7205 139.019 71.7804L131.074 72.0709C131.014 71.3393 130.954 70.6243 130.896 69.926C130.87 69.2265 130.747 68.6139 130.528 68.0882C130.341 67.528 130.008 67.0899 129.529 66.7738C129.05 66.4245 128.36 66.2662 127.461 66.2991C126.295 66.3417 125.353 66.5763 124.634 67.0029C123.915 67.3961 123.579 68.2423 123.627 69.5414L123.835 75.2376C124.401 75.2169 124.951 75.1968 125.484 75.1773C126.049 75.1233 126.545 75.0217 126.974 74.8726C127.435 74.7223 127.795 74.5257 128.053 74.2828C128.343 74.0054 128.496 73.6328 128.512 73.1653L132.959 73.0026C132.917 73.6713 132.892 74.356 132.884 75.0568C132.877 75.7575 132.885 76.441 132.909 77.1072C132.935 77.8068 132.977 78.5057 133.036 79.204C133.094 79.869 133.169 80.55 133.261 81.2471L128.814 81.4098ZM140.994 57.899C142.692 57.8368 144.56 57.8352 146.597 57.8942C148.666 57.9186 150.55 57.8997 152.249 57.8376C153.082 57.8072 154.047 57.7552 155.145 57.6817C156.275 57.5736 157.406 57.4822 158.537 57.4075C159.701 57.2983 160.832 57.2069 161.93 57.1334C163.061 57.0586 164.044 57.0227 164.878 57.0256L165.168 64.9703C163.967 64.9475 163.275 65.1896 163.093 65.6966C162.944 66.169 163.272 66.9409 164.079 68.0121L167.144 71.1022L169.678 67.9074C170.509 66.9097 170.698 66.1356 170.244 65.5852C169.79 65.0347 168.782 64.8214 167.219 64.9453L166.926 56.9506C167.758 56.8869 168.524 56.8589 169.225 56.8666C169.959 56.8731 170.677 56.8969 171.379 56.9379C172.08 56.9457 172.781 56.97 173.483 57.0111C174.217 57.0176 175 57.0056 175.833 56.9752C176.699 56.9435 177.431 56.9 178.03 56.8448C178.628 56.7896 179.21 56.7349 179.775 56.6809C180.339 56.5936 180.92 56.5223 181.518 56.4671C182.15 56.4106 182.882 56.3672 183.715 56.3367L184.007 64.3314C183.509 64.3829 182.912 64.4882 182.218 64.647C181.523 64.8058 180.798 65.0325 180.041 65.327C179.283 65.5882 178.562 65.9148 177.875 66.3068C177.189 66.6988 176.606 67.1537 176.124 67.6717L170.523 74.581L179.046 83.2753C180.016 84.2405 180.992 84.9553 181.977 85.4197C182.96 85.8507 183.936 86.0819 184.904 86.1132L185.193 94.0079C183.494 94.07 181.61 94.0889 179.541 94.0644C177.504 94.0055 175.636 94.0071 173.937 94.0692C173.105 94.0997 172.123 94.1689 170.993 94.277C169.862 94.3517 168.698 94.4443 167.501 94.5548C166.336 94.6307 165.188 94.706 164.057 94.7808C162.925 94.8555 161.943 94.8914 161.109 94.8886L160.82 86.9939C163.291 87.0703 163.737 86.0366 162.158 83.8929L159.091 80.7529L156.46 84.0512C155.629 85.0489 155.44 85.823 155.894 86.3735C156.348 86.9239 157.356 87.1372 158.92 87.0133L159.212 95.008C158.38 95.0717 157.597 95.1004 156.863 95.0939C156.163 95.0861 155.462 95.0784 154.761 95.0707C154.059 95.0296 153.341 95.0058 152.607 94.9993C151.905 94.9583 151.138 94.953 150.305 94.9835C149.472 95.0139 148.74 95.0574 148.108 95.1138C147.51 95.1691 146.929 95.2403 146.365 95.3277C145.8 95.3817 145.218 95.4363 144.62 95.4916C144.021 95.5468 143.289 95.5902 142.423 95.6219L142.131 87.6273C142.629 87.5757 143.226 87.4705 143.92 87.3116C144.615 87.1528 145.341 86.9428 146.099 86.6816C146.855 86.3871 147.577 86.0439 148.263 85.6519C148.949 85.2599 149.533 84.8049 150.014 84.2869L155.661 77.2759L147.19 68.6297C146.285 67.5954 145.308 66.8806 144.26 66.4853C143.244 66.0888 142.253 65.8749 141.284 65.8436L140.994 57.899ZM193.823 85.837C194.321 85.7855 194.802 85.7012 195.265 85.5842C195.727 85.4672 196.138 85.2854 196.496 85.0388C196.853 84.7923 197.126 84.4821 197.312 84.1084C197.531 83.7001 197.63 83.2128 197.609 82.6466L196.914 63.6592C196.116 63.7218 195.525 63.9602 195.139 64.3746C194.788 64.7877 194.539 65.2971 194.395 65.9028C194.283 66.5073 194.24 67.1426 194.264 67.8089C194.289 68.4751 194.295 69.0919 194.282 69.6595L186.337 69.95C186.441 69.1456 186.479 68.3437 186.449 67.5443C186.454 66.7436 186.441 65.9435 186.412 65.144C186.356 63.6117 186.3 62.0961 186.245 60.5971C186.189 59.0648 186.051 57.5522 185.829 56.0593C191.403 56.1556 196.955 56.1027 202.485 55.9005C208.281 55.6885 214.071 55.3267 219.857 54.8149C219.745 56.32 219.717 57.8387 219.773 59.371C219.828 60.87 219.883 62.3857 219.939 63.918C219.969 64.7175 219.998 65.5169 220.027 66.3164C220.09 67.1146 220.202 67.9111 220.365 68.7057L212.42 68.9962C212.366 68.4311 212.327 67.8155 212.302 67.1492C212.311 66.4818 212.221 65.8513 212.033 65.2578C211.878 64.6631 211.593 64.1732 211.179 63.7881C210.764 63.4029 210.157 63.2083 209.356 63.2043L210.051 82.1916C210.071 82.7579 210.189 83.2372 210.403 83.6296C210.65 83.9875 210.961 84.2764 211.336 84.4962C211.711 84.7159 212.133 84.8673 212.603 84.9501C213.073 85.033 213.558 85.082 214.059 85.097L214.35 93.0417C212.651 93.1038 210.967 93.1154 209.298 93.0764C207.627 93.004 205.943 92.9989 204.244 93.061C202.545 93.1232 200.849 93.2519 199.155 93.4473C197.493 93.6081 195.812 93.7196 194.113 93.7817L193.823 85.837ZM222.551 74.1794C222.425 70.7151 222.716 67.7358 223.425 65.2415C224.168 62.746 225.343 60.685 226.952 59.0585C228.593 57.4308 230.666 56.2042 233.171 55.3788C235.676 54.5533 238.644 54.0779 242.075 53.9524C245.573 53.8245 248.617 54.0634 251.207 54.6692C253.798 55.2749 255.938 56.3307 257.627 57.8367C259.349 59.3081 260.655 61.2783 261.546 63.7474C262.436 66.1832 262.945 69.1666 263.074 72.6976C263.203 76.2285 262.895 79.2084 262.15 81.6373C261.438 84.0649 260.277 86.042 258.665 87.5686C257.051 89.0619 254.974 90.1719 252.432 90.8986C249.922 91.5908 246.935 92.0002 243.471 92.1269C240.073 92.2512 237.097 92.0431 234.542 91.5028C231.988 90.9624 229.834 89.9905 228.081 88.5869C226.362 87.1822 225.043 85.3124 224.124 82.9778C223.203 80.6099 222.679 77.6771 222.551 74.1794ZM237.141 73.6459C237.208 75.478 237.306 77.2256 237.433 78.8887C237.561 80.5518 237.814 82.0102 238.194 83.2638C238.605 84.483 239.175 85.4628 239.902 86.2034C240.662 86.9094 241.691 87.2387 242.99 87.1912C244.289 87.1437 245.275 86.7407 245.948 85.9823C246.653 85.1893 247.149 84.1705 247.437 82.9258C247.758 81.6466 247.921 80.173 247.926 78.505C247.932 76.837 247.901 75.087 247.834 73.2548C247.769 71.4561 247.669 69.6585 247.537 67.8621C247.405 66.0657 247.129 64.4581 246.71 63.0391C246.325 61.6189 245.749 60.4725 244.983 59.5999C244.251 58.7261 243.235 58.3129 241.936 58.3604C240.637 58.4079 239.637 58.8948 238.937 59.821C238.271 60.746 237.78 61.9314 237.466 63.3771C237.186 64.8217 237.045 66.4446 237.044 68.2458C237.043 70.0471 237.076 71.8471 237.141 73.6459ZM265.54 72.6074C265.413 69.143 265.705 66.1637 266.414 63.6695C267.157 61.174 268.332 59.113 269.94 57.4865C271.582 55.8587 273.655 54.6321 276.16 53.8067C278.665 52.9813 281.633 52.5059 285.064 52.3804C288.562 52.2525 291.606 52.4914 294.196 53.0971C296.787 53.7029 298.927 54.7587 300.616 56.2646C302.338 57.736 303.644 59.7063 304.535 62.1754C305.424 64.6112 305.934 67.5946 306.063 71.1255C306.192 74.6565 305.884 77.6364 305.139 80.0653C304.427 82.4929 303.265 84.47 301.653 85.9966C300.04 87.4899 297.963 88.5999 295.421 89.3266C292.911 90.0188 289.924 90.4282 286.46 90.5549C283.062 90.6791 280.086 90.4711 277.531 89.9308C274.976 89.3904 272.823 88.4185 271.07 87.0149C269.351 85.6101 268.032 83.7404 267.113 81.4058C266.192 79.0378 265.668 76.105 265.54 72.6074ZM280.13 72.0738C280.197 73.9059 280.295 75.6536 280.422 77.3167C280.55 78.9798 280.803 80.4382 281.182 81.6918C281.594 82.9109 282.163 83.8908 282.891 84.6313C283.651 85.3374 284.68 85.6667 285.979 85.6191C287.278 85.5716 288.264 85.1687 288.937 84.4102C289.642 83.6173 290.138 82.5985 290.426 81.3538C290.746 80.0746 290.909 78.601 290.915 76.933C290.921 75.265 290.89 73.5149 290.823 71.6828C290.757 69.884 290.658 68.0864 290.526 66.2901C290.393 64.4937 290.118 62.8861 289.699 61.4671C289.314 60.0469 288.738 58.9005 287.972 58.0279C287.24 57.1541 286.224 56.7409 284.925 56.7884C283.626 56.8359 282.626 57.3228 281.926 58.249C281.26 59.174 280.769 60.3593 280.455 61.8051C280.175 63.2497 280.034 64.8726 280.033 66.6738C280.032 68.475 280.065 70.275 280.13 72.0738ZM307.94 81.664C308.407 81.6469 308.871 81.5799 309.334 81.4629C309.795 81.3126 310.205 81.1142 310.563 80.8676C310.921 80.621 311.21 80.3102 311.43 79.9353C311.648 79.527 311.747 79.0398 311.726 78.4735L311.149 62.684C311.127 62.0844 310.993 61.6057 310.746 61.2478C310.498 60.8566 310.188 60.5677 309.814 60.3813C309.439 60.1615 309.016 60.0102 308.546 59.9273C308.076 59.8444 307.608 59.7948 307.14 59.7786L306.85 51.8339C308.546 51.7052 310.23 51.6936 311.902 51.7993C313.605 51.8704 315.307 51.8749 317.006 51.8127C318.704 51.7506 320.385 51.6391 322.047 51.4783C323.707 51.2841 325.387 51.156 327.086 51.0939L327.377 59.0386C326.911 59.0889 326.447 59.1726 325.985 59.2896C325.522 59.4066 325.112 59.5884 324.754 59.835C324.395 60.0482 324.106 60.359 323.887 60.7672C323.668 61.1422 323.569 61.6295 323.591 62.2291L324.168 78.0185C324.212 79.2177 324.525 80.0235 325.107 80.4358C325.689 80.8481 326.548 81.0669 327.683 81.0921C329.385 81.1299 330.661 80.8998 331.51 80.4018C332.359 79.9038 332.951 79.215 333.286 78.3355C333.62 77.456 333.783 76.4327 333.774 75.2656C333.763 74.0652 333.766 72.7643 333.781 71.3628L341.726 71.0722C341.607 72.3775 341.572 73.7129 341.622 75.0787C341.671 76.4111 341.719 77.7269 341.767 79.0261C341.825 80.625 341.883 82.2073 341.94 83.7729C341.997 85.3385 342.138 86.9011 342.362 88.4606C338.833 88.6564 335.301 88.7522 331.765 88.748C328.228 88.7106 324.694 88.7565 321.163 88.8856C318.998 88.9648 316.834 89.0939 314.673 89.273C312.543 89.4176 310.396 89.5295 308.231 89.6087L307.94 81.664ZM343.47 63.1532C343.451 60.7857 343.844 58.7866 344.652 57.156C345.458 55.4921 346.56 54.1343 347.955 53.0826C349.351 52.0309 350.974 51.2544 352.824 50.7531C354.705 50.2173 356.679 49.9117 358.744 49.8361C360.476 49.7728 362.181 49.8772 363.859 50.1494C365.569 50.3871 367.111 50.6142 368.487 50.8308C368.957 50.9136 369.285 50.7682 369.472 50.3945C369.658 50.0208 369.76 49.6168 369.777 49.1825L375.724 48.9651C375.766 50.131 375.775 51.2814 375.75 52.4164C375.757 53.5169 375.781 54.6501 375.824 55.816C375.854 56.6487 375.901 57.4643 375.963 58.2625C376.059 59.0595 376.122 59.8744 376.153 60.7072L370.207 60.9247C370.094 59.6613 369.84 58.6365 369.444 57.8505C369.048 57.0644 368.225 56.4274 366.973 55.9395C366.535 55.8221 365.946 55.6935 365.207 55.5538C364.502 55.4128 363.731 55.3076 362.894 55.2381C362.09 55.1341 361.272 55.114 360.44 55.1777C359.608 55.2082 358.862 55.3355 358.203 55.5597C357.544 55.784 357.006 56.1372 356.59 56.6194C356.207 57.067 356.029 57.6906 356.058 58.4901C356.09 59.3562 356.448 60.0102 357.131 60.4522C357.813 60.8609 358.708 61.1784 359.817 61.4046C360.925 61.5976 362.182 61.7518 363.587 61.8672C365.024 61.9481 366.464 62.0956 367.906 62.3097C369.38 62.4892 370.826 62.8033 372.243 63.2518C373.694 63.6991 374.986 64.369 376.119 65.2615C377.251 66.1207 378.177 67.2709 378.897 68.7123C379.617 70.1536 380.017 71.9735 380.098 74.1721C380.196 76.8703 379.793 79.0698 378.888 80.7707C377.982 82.4382 376.746 83.7676 375.181 84.7588C373.65 85.7488 371.857 86.4481 369.804 86.8567C367.783 87.2308 365.69 87.4574 363.525 87.5366C362.526 87.5732 361.507 87.5437 360.47 87.4482C359.465 87.3515 358.477 87.2375 357.505 87.1063C356.532 86.9418 355.593 86.8093 354.689 86.709C353.784 86.6086 352.916 86.5737 352.083 86.6041C351.617 86.6212 351.29 86.7999 351.102 87.1403C350.913 87.4474 350.81 87.8181 350.793 88.2524L344.847 88.4698C344.804 87.3039 344.779 86.1707 344.772 85.0703C344.797 83.9352 344.789 82.7848 344.746 81.6189C344.716 80.7861 344.652 79.9712 344.557 79.1742C344.494 78.376 344.448 77.5604 344.417 76.7277L350.363 76.5102C350.476 77.7736 350.73 78.7983 351.126 79.5844C351.522 80.3705 352.346 81.0075 353.598 81.4954C354.069 81.6116 354.724 81.7377 355.563 81.8738C356.435 82.0087 357.373 82.1245 358.377 82.2212C359.414 82.2833 360.465 82.2949 361.531 82.256C362.597 82.217 363.559 82.0817 364.418 81.8502C365.276 81.6187 365.964 81.26 366.48 80.7741C367.029 80.2871 367.289 79.6438 367.26 78.8443C367.232 78.0782 366.861 77.508 366.146 77.1339C365.466 76.7585 364.571 76.4743 363.464 76.2813C362.355 76.055 361.097 75.8842 359.692 75.7688C358.286 75.6201 356.844 75.4227 355.368 75.1764C353.89 74.8969 352.442 74.5163 351.023 74.0345C349.605 73.5526 348.345 72.8649 347.245 71.9711C346.145 71.0774 345.252 69.9259 344.567 68.5167C343.881 67.0742 343.515 65.2863 343.47 63.1532Z" fill="white"/>
</svg>
