<svg width="219" height="172" viewBox="0 0 219 172" fill="none" xmlns="http://www.w3.org/2000/svg">
<path d="M6.7789 82.3398C1.53086 95.9701 9.40819 130.162 11.0241 143.089C15.9189 146.556 10.2962 157.162 14.1946 159.647C30.0388 169.748 44.628 167.114 60.7863 164.197L61.3218 164.1C88.5366 159.19 115.692 155.884 143.002 152.225C159.611 149.999 175.003 147.325 191.15 138.978C200.497 134.147 214.46 123.888 213.988 98.3265C212.854 36.842 179.34 40.3176 158.263 40.3176C127.729 40.3176 97.3612 32.2124 66.8567 30.1546C56.8672 29.4807 44.9031 30.7389 35.6356 39.404C27.8027 46.7278 23.5464 56.8 17.4725 68.8653C14.4946 74.7808 9.90956 74.2088 6.7789 82.3398Z" fill="#B22234" stroke="black" stroke-width="9" stroke-linecap="round"/>
<path d="M6.7789 57.7892C1.53086 71.4195 9.40819 105.611 11.0241 118.539C15.9189 122.006 10.2962 132.611 14.1946 135.096C30.0388 145.197 44.628 142.563 60.7863 139.646L61.3218 139.55C88.5366 134.64 115.692 131.334 143.002 127.674C159.611 125.448 175.003 122.774 191.15 114.428C200.497 109.596 214.46 99.337 213.988 73.7759C212.854 12.2913 179.34 15.7669 158.263 15.7669C127.729 15.7669 97.3612 7.66177 66.8567 5.60393C56.8672 4.93003 44.9031 6.18826 35.6356 14.8534C27.8027 22.1771 23.5464 32.2493 17.4725 44.3146C14.4946 50.2301 9.90956 49.6581 6.7789 57.7892Z" fill="#3C3B6E" stroke="black" stroke-width="9" stroke-linecap="round"/>
<path d="M86.7419 56.5227C88.4368 56.391 90.299 56.3131 92.3285 56.2889C94.3907 56.2287 96.2692 56.1328 97.9641 56.0011C98.7949 55.9366 99.7584 55.845 100.855 55.7264C101.983 55.572 103.112 55.4342 104.242 55.3131C105.404 55.156 106.533 55.0182 107.629 54.8997C108.758 54.7785 109.739 54.7024 110.57 54.6711L110.707 62.6199C109.509 62.6463 108.815 62.9171 108.624 63.4325C108.466 63.9121 108.779 64.672 109.562 65.7125L112.558 68.6834L115.147 65.3786C115.994 64.3449 116.197 63.5616 115.755 63.0286C115.314 62.4956 114.312 62.3231 112.752 62.5111L112.614 54.5123C113.444 54.4144 114.209 54.355 114.907 54.3341C115.639 54.3106 116.354 54.3051 117.053 54.3175C117.752 54.2966 118.45 54.2924 119.149 54.3048C119.881 54.2813 120.662 54.2373 121.493 54.1727C122.357 54.1056 123.088 54.0321 123.686 53.9523C124.283 53.8725 124.864 53.794 125.429 53.7167C125.993 53.6062 126.573 53.511 127.171 53.4312C127.802 53.3488 128.533 53.2753 129.363 53.2107L129.501 61.2096C129.003 61.2816 128.406 61.4114 127.711 61.599C127.015 61.7865 126.287 62.0433 125.528 62.3693C124.767 62.662 124.041 63.0188 123.35 63.4396C122.658 63.8605 122.067 64.3402 121.578 64.8789L115.86 72.0311L124.191 80.3945C125.138 81.3221 126.098 81.9983 127.071 82.4234C128.043 82.8151 129.011 83.0068 129.976 82.9986L130.112 90.8974C128.417 91.0291 126.538 91.125 124.476 91.1852C122.447 91.2094 120.584 91.2873 118.89 91.419C118.059 91.4836 117.079 91.5931 115.95 91.7476C114.821 91.8687 113.659 92.0091 112.463 92.1687C111.301 92.2924 110.155 92.4149 109.025 92.536C107.896 92.6571 106.916 92.7333 106.084 92.7645L105.948 84.8657C108.41 84.8412 108.875 83.7873 107.341 81.7038L104.344 78.6828L101.658 82.0954C100.81 83.1291 100.607 83.9124 101.049 84.4454C101.491 84.9785 102.492 85.1509 104.053 84.9629L104.191 92.9617C103.361 93.0596 102.58 93.1203 101.848 93.1438C101.149 93.1647 100.451 93.1856 99.7524 93.2065C99.0534 93.1941 98.338 93.1996 97.6063 93.2231C96.9073 93.2107 96.1423 93.2367 95.3115 93.3013C94.4807 93.3659 93.7498 93.4393 93.119 93.5217C92.5214 93.6015 91.9406 93.6967 91.3768 93.8073C90.8124 93.8845 90.2314 93.963 89.6338 94.0429C89.0362 94.1227 88.3053 94.1961 87.4413 94.2633L87.3036 86.2645C87.8016 86.1924 88.3983 86.0626 89.0939 85.8751C89.7895 85.6875 90.5175 85.4474 91.2778 85.1547C92.0376 84.8287 92.7633 84.4552 93.4549 84.0344C94.1465 83.6135 94.7372 83.1338 95.2271 82.5951L100.992 75.339L92.7129 67.0218C91.8305 66.0224 90.8704 65.3461 89.8327 64.9929C88.8283 64.6371 87.8436 64.4633 86.8787 64.4716L86.7419 56.5227Z" fill="white"/>
</svg>
